<svg width="23" height="23" viewBox="0 0 23 23" fill="none" xmlns="http://www.w3.org/2000/svg">
<g filter="url(#filter0_d)">
<path d="M15.875 0.625H7.125C6.2965 0.625992 5.50222 0.955551 4.91639 1.54139C4.33055 2.12722 4.00099 2.9215 4 3.75V11.25C4.00099 12.0785 4.33055 12.8728 4.91639 13.4586C5.50222 14.0444 6.2965 14.374 7.125 14.375H15.875C16.7035 14.374 17.4978 14.0444 18.0836 13.4586C18.6694 12.8728 18.999 12.0785 19 11.25V3.75C18.999 2.9215 18.6694 2.12722 18.0836 1.54139C17.4978 0.955551 16.7035 0.625992 15.875 0.625ZM7.125 1.875H15.875C16.2492 1.87574 16.6147 1.98845 16.9243 2.19863C17.234 2.40881 17.4737 2.70684 17.6125 3.05438L12.8263 7.84125C12.474 8.19207 11.9971 8.38904 11.5 8.38904C11.0029 8.38904 10.526 8.19207 10.1737 7.84125L5.3875 3.05438C5.52634 2.70684 5.76601 2.40881 6.07565 2.19863C6.3853 1.98845 6.75076 1.87574 7.125 1.875ZM15.875 13.125H7.125C6.62772 13.125 6.15081 12.9275 5.79917 12.5758C5.44754 12.2242 5.25 11.7473 5.25 11.25V4.6875L9.29 8.725C9.87664 9.31016 10.6714 9.63877 11.5 9.63877C12.3286 9.63877 13.1234 9.31016 13.71 8.725L17.75 4.6875V11.25C17.75 11.7473 17.5525 12.2242 17.2008 12.5758C16.8492 12.9275 16.3723 13.125 15.875 13.125Z" fill="white"/>
</g>
<defs>
<filter id="filter0_d" x="0" y="0.625" width="23" height="21.75" filterUnits="userSpaceOnUse" color-interpolation-filters="sRGB">
<feFlood flood-opacity="0" result="BackgroundImageFix"/>
<feColorMatrix in="SourceAlpha" type="matrix" values="0 0 0 0 0 0 0 0 0 0 0 0 0 0 0 0 0 0 127 0"/>
<feOffset dy="4"/>
<feGaussianBlur stdDeviation="2"/>
<feColorMatrix type="matrix" values="0 0 0 0 0 0 0 0 0 0 0 0 0 0 0 0 0 0 0.25 0"/>
<feBlend mode="normal" in2="BackgroundImageFix" result="effect1_dropShadow"/>
<feBlend mode="normal" in="SourceGraphic" in2="effect1_dropShadow" result="shape"/>
</filter>
</defs>
</svg>
